<svg version="1.1" id="Layer_1" xmlns="http://www.w3.org/2000/svg" xmlns:xlink="http://www.w3.org/1999/xlink" x="0px" y="0px"
	 width="100%" viewBox="0 0 174 154" enable-background="new 0 0 174 154" xml:space="preserve">
<path fill="#FDFDFD" opacity="1.000000" stroke="none" 
	d="
M175.000000,120.000000 
	C175.000000,131.645721 175.000000,143.291428 175.000000,154.937622 
	C116.999969,154.938110 58.999966,154.938110 1.000000,154.938110 
	C1.000000,143.563248 1.000000,132.250290 1.400307,120.460449 
	C4.200006,119.877373 7.411308,118.740128 8.840694,119.865723 
	C12.556733,122.791992 15.733503,122.211327 19.409763,120.397324 
	C20.685272,119.767944 22.290981,119.845970 23.671301,119.379990 
	C25.044743,118.916336 26.324547,118.175301 27.645411,117.555893 
	C25.993069,115.243652 28.798271,111.006248 23.884142,109.932457 
	C18.650478,108.788857 12.501290,113.425201 8.081641,107.427589 
	C8.018014,107.341248 7.763265,107.395744 7.323881,107.365913 
	C6.611646,108.410278 5.823424,109.566055 5.113510,110.607018 
	C3.598181,110.383400 2.299091,110.191704 1.000000,110.000000 
	C1.000000,75.312439 1.000000,40.624878 1.445481,5.468853 
	C5.155537,5.289660 8.420113,5.578928 12.207015,5.914479 
	C11.439501,4.205414 10.719750,2.602707 10.000000,1.000000 
	C10.444445,1.000000 10.888889,1.000000 11.804371,1.282323 
	C13.183606,1.376431 14.091803,1.188216 15.000000,1.000000 
	C15.750000,1.000000 16.500000,1.000000 17.626930,1.421784 
	C17.729496,4.709463 19.463448,5.035200 21.756859,5.024533 
	C33.533466,4.969758 45.311539,4.912215 57.086609,5.057588 
	C60.193657,5.095946 61.379707,3.980572 61.000000,1.000000 
	C84.687561,1.000000 108.375122,1.000000 132.533279,1.414399 
	C134.069733,2.884584 135.115417,4.814613 136.205048,4.839753 
	C140.208496,4.932119 144.067505,3.760147 148.280960,4.795361 
	C153.644058,6.113028 159.303268,6.185616 164.805893,6.992312 
	C167.487656,7.385467 170.190689,9.104934 172.223343,5.631681 
	C172.551254,5.071361 174.045105,5.193392 175.000000,5.000001 
	C175.000000,39.687561 175.000000,74.375122 174.550385,109.531342 
	C170.663666,110.175522 167.226593,110.351044 163.859528,110.522995 
	C162.935837,109.297920 162.004242,108.062378 161.004532,106.736481 
	C156.330475,111.893364 144.840027,112.219757 139.064529,108.919441 
	C137.778244,108.184418 135.756256,107.930939 134.410522,108.407959 
	C133.602585,108.694351 133.174545,110.800400 133.059433,112.130524 
	C132.849731,114.553459 132.999863,117.007538 132.999863,119.524925 
	C134.462631,119.744629 135.386490,120.187561 136.041687,119.934601 
	C142.405975,117.477531 148.775772,120.374725 155.064194,119.820419 
	C161.756531,119.230507 168.345169,124.398651 175.000000,120.000000 
M138.769867,139.871658 
	C137.706390,139.180511 136.642914,138.489365 134.669067,137.206558 
	C134.908371,141.834503 135.074554,145.048523 135.277390,148.971161 
	C136.985001,146.728134 137.975723,145.426773 139.166092,144.771667 
	C140.378555,146.192337 141.591019,147.612991 142.803497,149.033661 
	C143.111954,148.763565 143.420425,148.493484 143.728882,148.223389 
	C143.728882,144.558548 143.728882,140.893723 143.728882,136.914093 
	C141.853256,138.382034 140.570297,139.386108 138.769867,139.871658 
M77.924866,60.679604 
	C78.003410,61.126339 78.081955,61.573078 78.014450,62.893299 
	C77.966347,73.203590 81.054741,78.023605 88.683975,78.375313 
	C96.494743,78.735390 104.345879,78.681572 112.160149,78.352760 
	C118.034241,78.105591 122.007309,73.872261 122.265076,67.952660 
	C122.467140,63.312210 122.139336,58.648693 122.293785,53.345966 
	C122.207474,52.898582 122.121162,52.451195 122.305168,51.099651 
	C122.305168,45.675804 122.305168,40.251961 122.305168,34.830967 
	C118.211670,34.830967 114.814178,34.830967 111.159378,34.830967 
	C111.159378,40.428452 111.159378,45.707542 110.925812,51.480896 
	C110.862274,51.651680 110.798737,51.822468 109.922272,51.992031 
	C108.930481,51.936531 107.912704,52.005707 106.951111,51.805313 
	C100.681511,50.498741 100.685493,50.479618 100.273842,56.942001 
	C98.516335,56.942001 96.726013,56.942001 94.888741,56.522797 
	C94.761208,56.299732 94.633682,56.076668 94.506157,55.853603 
	C94.450935,55.977451 94.314491,56.156754 94.354607,56.215511 
	C94.526070,56.466663 94.749641,56.682236 94.969353,57.673752 
	C94.953323,58.182163 94.937294,58.690575 94.667915,59.266335 
	C94.667915,59.266335 94.557228,59.584702 94.557228,59.584702 
	C94.557228,59.584702 94.820328,59.848747 95.633797,59.932850 
	C99.089195,58.621952 102.544601,57.311054 106.000000,56.000000 
	C106.000000,56.000000 106.000000,55.999973 106.017914,56.762115 
	C107.594093,57.510254 109.170280,58.258392 110.940361,59.514938 
	C111.014435,59.680504 111.088501,59.846066 110.985924,60.845608 
	C110.899826,62.541595 110.813728,64.237579 109.825569,65.925941 
	C103.157997,65.982719 96.490417,66.039497 89.460709,65.349083 
	C89.348038,55.563412 89.235359,45.777744 89.193062,35.312943 
	C88.823387,35.136890 88.453705,34.960842 87.328545,34.516697 
	C84.293877,34.516697 81.259209,34.516697 77.808052,34.516697 
	C77.808052,39.828167 77.808052,44.409000 77.092499,49.001022 
	C74.473442,50.513958 71.854393,52.026890 69.959068,53.121750 
	C71.002228,55.504635 71.830994,57.397789 72.976257,60.013901 
	C73.854042,60.013901 75.809647,60.013901 77.924866,60.679604 
M58.022903,114.245087 
	C58.482658,112.984039 58.942413,111.722992 59.530010,110.111290 
	C53.802559,110.111290 48.536446,109.742561 43.353161,110.238884 
	C39.804108,110.578712 35.495106,110.554436 33.967701,115.112892 
	C33.588936,116.243301 33.157486,117.900894 33.689369,118.643738 
	C34.261333,119.442551 35.931255,119.727699 37.133865,119.757195 
	C43.749611,119.919434 50.368961,119.934746 57.179272,120.846992 
	C57.207455,122.504318 57.118744,124.173584 57.286503,125.816658 
	C57.728653,130.147308 61.071548,129.733459 64.036774,129.726440 
	C66.881866,129.719696 69.997055,129.873352 70.183075,125.762192 
	C70.302872,123.114807 70.423187,120.440208 70.156944,117.817017 
	C70.060722,116.869026 68.839088,116.035271 68.131004,115.149384 
	C67.536758,116.137451 66.595230,117.069901 66.426109,118.126045 
	C66.141365,119.904160 66.697060,121.858124 66.226395,123.551056 
	C65.898903,124.728989 64.445221,125.593811 63.494648,126.598511 
	C62.706425,125.607025 61.452618,124.708031 61.233196,123.603539 
	C60.852665,121.688049 61.468243,119.549553 60.968231,117.692467 
	C60.674229,116.600525 59.034233,115.870995 58.022903,114.245087 
M64.226944,60.514454 
	C65.938866,59.204422 67.650787,57.894390 69.286949,56.642334 
	C68.248474,55.701958 67.019104,54.588730 66.504936,54.123131 
	C64.319527,54.873989 62.701675,55.429844 60.869709,55.536152 
	C60.869709,55.536152 60.796291,55.043659 61.450943,54.953056 
	C61.680027,54.408768 61.909111,53.864479 62.138191,53.320183 
	C60.754333,53.500351 59.370476,53.680515 57.360073,54.216572 
	C55.279598,55.148396 53.199120,56.080215 50.634575,57.228848 
	C57.032867,70.858643 66.109436,81.498047 78.578247,89.852036 
	C79.905113,82.980011 78.409744,78.084991 73.521561,73.630486 
	C69.695671,70.144035 67.068687,65.341957 64.226944,60.514454 
M49.078491,51.590065 
	C51.518391,54.193825 51.434715,51.487309 52.765751,49.973530 
	C58.428062,48.933102 57.015198,44.611111 56.949638,40.927959 
	C56.720268,28.041157 62.621449,21.248518 75.111176,20.005730 
	C75.707863,19.946356 76.281967,19.660143 78.366379,19.016323 
	C75.975922,17.250832 74.538109,15.313982 72.896530,15.122313 
	C64.018776,14.085752 55.628616,15.631479 50.396713,23.638363 
	C44.766808,32.254337 44.250011,41.589291 49.078491,51.590065 
M100.495583,100.129898 
	C113.030846,102.948532 123.670189,99.439751 128.516266,90.559593 
	C129.373169,88.989357 128.952438,86.721901 129.121704,84.776428 
	C126.992500,85.089020 124.242142,84.668007 122.847839,85.848564 
	C118.236229,89.753204 113.104355,91.967491 107.254738,90.975739 
	C101.433632,89.988831 95.770882,88.048347 90.057762,86.457489 
	C88.591385,86.049164 87.196922,85.382629 85.621689,84.778015 
	C84.174904,94.577492 84.446716,95.077354 92.962204,98.057831 
	C95.151161,98.823975 97.418320,99.366669 100.495583,100.129898 
M107.156075,122.470642 
	C107.150726,129.112198 107.150726,129.112198 110.866676,128.794861 
	C110.980293,126.977638 111.095268,125.138657 111.219627,123.149445 
	C114.571182,124.677132 113.961067,131.472687 119.723297,128.594330 
	C119.723297,124.761879 119.838425,121.116508 119.633682,117.489197 
	C119.588547,116.689476 118.409470,115.953766 117.752563,115.188583 
	C117.136024,115.951904 116.219444,116.630493 115.974258,117.498688 
	C115.619019,118.756561 115.749283,120.151543 115.599754,122.752792 
	C113.911934,119.884132 113.121880,118.025749 111.854637,116.587944 
	C111.136459,115.773094 109.616074,115.305344 108.496338,115.369362 
	C108.000877,115.397690 107.413536,117.093956 107.211479,118.101929 
	C106.988136,119.216133 107.158249,120.409195 107.156075,122.470642 
M76.244644,120.639549 
	C76.244644,123.399551 76.244644,126.159546 76.244644,130.434647 
	C80.857529,129.250809 85.541061,129.285080 88.057648,126.966934 
	C89.726204,125.429932 89.637871,119.159103 87.916130,117.461014 
	C85.599670,115.176399 80.951904,115.255562 76.658974,114.154518 
	C76.456200,116.872505 76.349876,118.297615 76.244644,120.639549 
M113.657707,147.051331 
	C113.955299,144.699783 114.750290,144.424591 116.319160,146.304001 
	C117.128296,147.273300 118.198013,148.025070 119.726913,149.390289 
	C119.914482,145.154785 121.250870,141.211792 119.839554,139.145844 
	C118.541695,137.245956 114.286690,137.366180 110.584099,136.400833 
	C110.584099,140.593445 110.449203,143.537537 110.712463,146.445602 
	C110.758118,146.949890 112.487968,147.301712 113.657707,147.051331 
M72.913147,137.536469 
	C71.883141,137.936295 69.974747,138.311508 69.962746,138.739853 
	C69.870583,142.028732 70.146851,145.327927 70.308716,148.623932 
	C70.907265,148.605240 71.505821,148.586563 72.104370,148.567871 
	C72.562294,147.204147 73.020210,145.840424 73.434853,144.605576 
	C75.123474,146.126953 76.724937,147.569809 78.845863,149.480682 
	C78.845863,144.436966 78.845863,140.802628 78.845863,137.168289 
	C78.432533,137.132187 78.019196,137.096069 77.605865,137.059967 
	C76.983566,138.342819 76.361259,139.625656 75.576889,141.242615 
	C74.719658,139.959656 74.082893,139.006638 72.913147,137.536469 
M150.965790,148.433365 
	C153.508606,148.433365 156.051422,148.433365 160.215256,148.433365 
	C158.535187,144.749146 157.448868,142.366943 156.501953,140.290451 
	C156.726440,140.128876 157.545364,139.539474 158.364273,138.950073 
	C158.079910,138.692886 157.795532,138.435715 157.511169,138.178528 
	C154.783463,138.178528 152.055756,138.178528 148.448914,138.178528 
	C149.056885,141.760254 149.599564,144.957291 150.965790,148.433365 
M96.743164,115.136429 
	C95.930511,115.842346 94.387657,116.590515 94.425644,117.247223 
	C94.645538,121.048294 95.238167,124.827797 95.795700,129.353836 
	C96.898155,129.275757 99.297630,129.105835 101.367271,128.959259 
	C100.758171,126.144447 99.965736,124.169846 100.005814,122.212280 
	C100.049416,120.082764 100.866310,117.969086 101.424019,115.503860 
	C100.105675,115.376411 98.826469,115.252739 96.743164,115.136429 
M31.592382,144.110886 
	C31.764921,145.548584 31.937458,146.986282 32.109997,148.423981 
	C32.522865,148.395691 32.935730,148.367401 33.348598,148.339127 
	C33.842293,146.916626 34.335983,145.494125 34.749870,144.301559 
	C36.488979,145.921921 37.971394,147.303116 40.402103,149.567841 
	C40.402103,144.796585 40.402103,141.572311 40.402103,138.348022 
	C40.068306,138.118134 39.734509,137.888245 39.400707,137.658356 
	C38.605804,139.128830 37.810898,140.599319 37.163048,141.797760 
	C35.885635,140.157776 34.574463,138.474472 33.263290,136.791153 
	C32.704140,137.041428 32.144993,137.291718 31.585842,137.542007 
	C31.585842,139.468231 31.585842,141.394455 31.592382,144.110886 
M22.163979,141.619522 
	C20.687136,136.599670 26.313351,140.864151 26.599518,138.117950 
	C23.877874,138.117950 21.119640,138.117950 18.221081,138.117950 
	C18.221081,141.497223 18.221081,144.711227 18.221081,147.756622 
	C21.304607,147.756622 24.117332,147.756622 26.930056,147.756622 
	C26.963785,147.373016 26.997513,146.989410 27.031242,146.605804 
	C25.018681,146.249283 23.006119,145.892761 19.882318,145.339386 
	C22.282469,144.076355 23.619513,143.372772 24.956556,142.669174 
	C24.881498,142.421768 24.806440,142.174347 24.731382,141.926941 
	C24.114748,141.926941 23.498114,141.926941 22.163979,141.619522 
M45.846306,142.454544 
	C45.931057,149.466431 47.101898,150.163635 54.835972,147.707443 
	C54.835972,145.970703 54.835972,144.203049 54.835972,142.359711 
	C53.161751,142.359711 51.681156,142.359711 49.734436,142.359711 
	C50.720387,143.681137 51.366558,144.547180 52.445641,145.993423 
	C50.489784,145.846878 49.285393,145.756653 48.500191,145.697815 
	C45.797710,139.937241 51.764061,140.613693 53.402283,138.041306 
	C50.958210,139.484299 45.744324,134.713684 45.846306,142.454544 
M97.693192,145.226974 
	C98.583176,148.938263 101.281036,149.581711 106.737610,146.858963 
	C104.084045,146.280762 102.007431,145.828278 100.665634,145.535904 
	C102.561172,143.012619 104.254303,140.758804 106.171524,138.206665 
	C102.954262,138.206665 100.515038,138.206665 97.689995,138.206665 
	C97.689995,140.398895 97.689995,142.350708 97.693192,145.226974 
M128.100266,148.602325 
	C128.772247,147.946548 130.036118,147.270828 130.014816,146.638412 
	C129.917252,143.742264 129.459793,140.858246 129.094009,137.639282 
	C128.202255,137.639282 126.426567,137.639282 125.222626,137.639282 
	C125.222626,141.343811 125.222626,144.549164 125.222626,148.166824 
	C125.575188,148.237793 126.491333,148.422180 128.100266,148.602325 
M64.101425,141.075455 
	C64.508324,139.968185 64.915222,138.860916 65.542442,137.154083 
	C63.256306,137.291702 61.602619,137.391235 60.446754,137.460815 
	C60.446754,141.415756 60.446754,144.662003 60.446754,148.184265 
	C61.758320,148.184265 63.457771,148.184265 65.054131,148.184265 
	C64.693695,145.850601 64.383369,143.841370 64.101425,141.075455 
M88.199059,146.698029 
	C87.821609,146.020187 87.444160,145.342331 87.066711,144.664490 
	C91.541382,144.628540 90.477325,140.135590 92.946800,138.190948 
	C89.955505,138.190948 87.518059,138.190948 84.952301,138.190948 
	C84.952301,141.623825 84.952301,144.823517 84.952301,148.025269 
	C87.721077,148.025269 90.167709,148.025269 92.614334,148.025269 
	C92.632736,147.736786 92.651138,147.448303 92.669540,147.159805 
	C91.437965,147.096664 90.206398,147.033508 88.199059,146.698029 
M97.891113,24.552061 
	C93.582321,22.220177 89.273521,19.888292 84.964729,17.556408 
	C84.557289,18.342848 84.149849,19.129288 83.742409,19.915726 
	C89.176613,22.693092 94.610809,25.470459 100.045013,28.247824 
	C100.286545,27.872032 100.528069,27.496239 100.769600,27.120447 
	C100.002533,26.399801 99.235458,25.679155 97.891113,24.552061 
M15.919871,7.929012 
	C15.985677,7.782085 16.106745,7.632227 16.099157,7.489195 
	C16.093464,7.381897 15.908868,7.184987 15.826899,7.196182 
	C15.015045,7.307071 14.207987,7.453061 13.399570,7.589117 
	C13.442148,7.876267 13.484725,8.163418 13.527302,8.450568 
	C14.164781,8.373592 14.802258,8.296617 15.919871,7.929012 
M47.993927,55.480213 
	C47.879780,54.981918 47.765633,54.483624 47.651485,53.985329 
	C47.422199,54.072685 47.192909,54.160038 46.963619,54.247391 
	C47.302902,54.857708 47.642181,55.468025 47.993927,55.480213 
M128.174652,56.361847 
	C128.174652,57.248642 128.174652,58.135437 128.174652,59.022232 
	C128.393082,59.012684 128.611526,59.003139 128.829956,58.993591 
	C128.737350,57.989006 128.644760,56.984425 128.174652,56.361847 
M32.737263,113.183716 
	C32.623508,113.027069 32.509754,112.870415 32.396000,112.713760 
	C32.418934,112.931534 32.441868,113.149300 32.737263,113.183716 
z"/>
<path fill="#F8F8F8" opacity="1.000000" stroke="none" 
	d="
M175.000000,119.545891 
	C168.345169,124.398651 161.756531,119.230507 155.064194,119.820419 
	C148.775772,120.374725 142.405975,117.477531 136.041687,119.934601 
	C135.386490,120.187561 134.462631,119.744629 132.999863,119.524925 
	C132.999863,117.007538 132.849731,114.553459 133.059433,112.130524 
	C133.174545,110.800400 133.602585,108.694351 134.410522,108.407959 
	C135.756256,107.930939 137.778244,108.184418 139.064529,108.919441 
	C144.840027,112.219757 156.330475,111.893364 161.004532,106.736481 
	C162.004242,108.062378 162.935837,109.297920 163.859528,110.522995 
	C167.226593,110.351044 170.663666,110.175522 174.550385,110.000000 
	C175.000000,113.030594 175.000000,116.061188 175.000000,119.545891 
M136.632385,109.475685 
	C136.842133,109.529671 137.051895,109.583664 137.261642,109.637650 
	C137.126923,109.505203 136.992203,109.372757 136.632385,109.475685 
z"/>
<path fill="#F8F8F8" opacity="1.000000" stroke="none" 
	d="
M1.000000,110.454109 
	C2.299091,110.191704 3.598181,110.383400 5.113510,110.607018 
	C5.823424,109.566055 6.611646,108.410278 7.323881,107.365913 
	C7.763265,107.395744 8.018014,107.341248 8.081641,107.427589 
	C12.501290,113.425201 18.650478,108.788857 23.884142,109.932457 
	C28.798271,111.006248 25.993069,115.243652 27.645411,117.555893 
	C26.324547,118.175301 25.044743,118.916336 23.671301,119.379990 
	C22.290981,119.845970 20.685272,119.767944 19.409763,120.397324 
	C15.733503,122.211327 12.556733,122.791992 8.840694,119.865723 
	C7.411308,118.740128 4.200006,119.877373 1.400307,119.991791 
	C1.000000,116.969406 1.000000,113.938812 1.000000,110.454109 
z"/>
<path fill="#F8F8F8" opacity="1.000000" stroke="none" 
	d="
M175.000000,4.500001 
	C174.045105,5.193392 172.551254,5.071361 172.223343,5.631681 
	C170.190689,9.104934 167.487656,7.385467 164.805893,6.992312 
	C159.303268,6.185616 153.644058,6.113028 148.280960,4.795361 
	C144.067505,3.760147 140.208496,4.932119 136.205048,4.839753 
	C135.115417,4.814613 134.069733,2.884584 133.001938,1.414399 
	C146.166672,1.000000 159.337067,1.168429 172.497269,0.876795 
	C175.629379,0.807387 174.951920,2.345620 175.000000,4.500001 
z"/>
<path fill="#F8F8F8" opacity="1.000000" stroke="none" 
	d="
M60.531342,1.000000 
	C61.379707,3.980572 60.193657,5.095946 57.086609,5.057588 
	C45.311539,4.912215 33.533466,4.969758 21.756859,5.024533 
	C19.463448,5.035200 17.729496,4.709463 18.001930,1.421784 
	C32.020893,1.000000 46.041790,1.000000 60.531342,1.000000 
z"/>
<path fill="#F8F8F8" opacity="1.000000" stroke="none" 
	d="
M9.508951,1.000000 
	C10.719750,2.602707 11.439501,4.205414 12.207015,5.914479 
	C8.420113,5.578928 5.155537,5.289660 1.445481,5.000196 
	C1.000000,3.718090 1.000000,2.436180 1.000000,1.000000 
	C3.671692,1.000000 6.344798,1.000000 9.508951,1.000000 
z"/>
<path fill="#F8F8F8" opacity="1.000000" stroke="none" 
	d="
M14.625000,1.000000 
	C14.091803,1.188216 13.183606,1.376431 12.137705,1.282323 
	C12.750000,1.000000 13.500000,1.000000 14.625000,1.000000 
z"/>
<path fill="#282828" opacity="1.000000" stroke="none" 
	d="
M77.808060,48.989834 
	C77.808052,44.409000 77.808052,39.828167 77.808052,34.516697 
	C81.259209,34.516697 84.293877,34.516697 87.783348,34.922066 
	C88.532997,35.548981 88.827843,35.770527 89.122688,35.992073 
	C89.235359,45.777744 89.348038,55.563412 89.772102,66.084213 
	C96.088234,66.945114 102.092857,67.124039 108.097855,67.137978 
	C108.973503,67.139999 109.850990,66.354607 110.727631,65.933563 
	C110.813728,64.237579 110.899826,62.541595 111.443359,60.421577 
	C115.550003,59.558609 116.169662,57.042866 116.262894,53.997185 
	C116.510948,53.998169 117.007057,53.999664 117.275146,54.241795 
	C117.951942,55.853951 118.360657,57.223980 118.715164,58.412296 
	C119.972977,56.744839 121.009964,55.370132 122.046944,53.995422 
	C122.139336,58.648693 122.467140,63.312210 122.265076,67.952660 
	C122.007309,73.872261 118.034241,78.105591 112.160149,78.352760 
	C104.345879,78.681572 96.494743,78.735390 88.683975,78.375313 
	C81.054741,78.023605 77.966347,73.203590 78.448036,62.498245 
	C84.143234,63.378101 86.043419,61.969654 85.981628,56.840546 
	C85.923439,52.009953 85.205414,51.598282 78.099365,52.024403 
	C77.958519,50.789864 77.883286,49.889847 77.808060,48.989834 
z"/>
<path fill="#AFAFAF" opacity="1.000000" stroke="none" 
	d="
M100.072571,100.070953 
	C97.418320,99.366669 95.151161,98.823975 92.962204,98.057831 
	C84.446716,95.077354 84.174904,94.577492 85.621689,84.778015 
	C87.196922,85.382629 88.591385,86.049164 90.057762,86.457489 
	C95.770882,88.048347 101.433632,89.988831 107.254738,90.975739 
	C113.104355,91.967491 118.236229,89.753204 122.847839,85.848564 
	C124.242142,84.668007 126.992500,85.089020 129.121704,84.776428 
	C128.952438,86.721901 129.373169,88.989357 128.516266,90.559593 
	C123.670189,99.439751 113.030846,102.948532 100.072571,100.070953 
z"/>
<path fill="#AEAEAE" opacity="1.000000" stroke="none" 
	d="
M49.003273,50.964638 
	C44.250011,41.589291 44.766808,32.254337 50.396713,23.638363 
	C55.628616,15.631479 64.018776,14.085752 72.896530,15.122313 
	C74.538109,15.313982 75.975922,17.250832 78.366379,19.016323 
	C76.281967,19.660143 75.707863,19.946356 75.111176,20.005730 
	C62.621449,21.248518 56.720268,28.041157 56.949638,40.927959 
	C57.015198,44.611111 58.428062,48.933102 52.077034,50.047211 
	C50.593300,50.402142 49.798286,50.683392 49.003273,50.964638 
z"/>
<path fill="#AEAEAE" opacity="1.000000" stroke="none" 
	d="
M60.796291,55.043659 
	C60.796291,55.043659 60.869709,55.536152 61.067596,56.078312 
	C62.146664,58.121788 63.027843,59.623104 63.909019,61.124420 
	C67.068687,65.341957 69.695671,70.144035 73.521561,73.630486 
	C78.409744,78.084991 79.905113,82.980011 78.578247,89.852036 
	C66.109436,81.498047 57.032867,70.858643 50.634575,57.228848 
	C53.199120,56.080215 55.279598,55.148396 57.978111,54.105408 
	C59.329529,54.344044 60.062912,54.693851 60.796291,55.043659 
z"/>
<path fill="#F8F8F8" opacity="1.000000" stroke="none" 
	d="
M56.987072,120.000465 
	C50.368961,119.934746 43.749611,119.919434 37.133865,119.757195 
	C35.931255,119.727699 34.261333,119.442551 33.689369,118.643738 
	C33.157486,117.900894 33.588936,116.243301 33.967701,115.112892 
	C35.495106,110.554436 39.804108,110.578712 43.353161,110.238884 
	C48.536446,109.742561 53.802559,110.111290 59.530010,110.111290 
	C58.942413,111.722992 58.482658,112.984039 57.817764,114.926125 
	C57.404106,117.071594 57.195587,118.536034 56.987072,120.000465 
z"/>
<path fill="#252525" opacity="1.000000" stroke="none" 
	d="
M117.007057,53.999660 
	C117.007057,53.999664 116.510948,53.998169 116.109039,53.696766 
	C114.191216,52.592453 112.675301,51.789539 111.159378,50.986629 
	C111.159378,45.707542 111.159378,40.428452 111.159378,34.830967 
	C114.814178,34.830967 118.211670,34.830967 122.305168,34.830967 
	C122.305168,40.251961 122.305168,45.675804 121.772278,51.544922 
	C119.828613,52.660015 118.417831,53.329838 117.007057,53.999660 
z"/>
<path fill="#434343" opacity="1.000000" stroke="none" 
	d="
M107.156540,122.019279 
	C107.158249,120.409195 106.988136,119.216133 107.211479,118.101929 
	C107.413536,117.093956 108.000877,115.397690 108.496338,115.369362 
	C109.616074,115.305344 111.136459,115.773094 111.854637,116.587944 
	C113.121880,118.025749 113.911934,119.884132 115.599754,122.752792 
	C115.749283,120.151543 115.619019,118.756561 115.974258,117.498688 
	C116.219444,116.630493 117.136024,115.951904 117.752563,115.188583 
	C118.409470,115.953766 119.588547,116.689476 119.633682,117.489197 
	C119.838425,121.116508 119.723297,124.761879 119.723297,128.594330 
	C113.961067,131.472687 114.571182,124.677132 111.219627,123.149445 
	C111.095268,125.138657 110.980293,126.977638 110.866676,128.794861 
	C107.150726,129.112198 107.150726,129.112198 107.156540,122.019279 
z"/>
<path fill="#474747" opacity="1.000000" stroke="none" 
	d="
M76.244095,120.181137 
	C76.349876,118.297615 76.456200,116.872505 76.658974,114.154518 
	C80.951904,115.255562 85.599670,115.176399 87.916130,117.461014 
	C89.637871,119.159103 89.726204,125.429932 88.057648,126.966934 
	C85.541061,129.285080 80.857529,129.250809 76.244644,130.434647 
	C76.244644,126.159546 76.244644,123.399551 76.244095,120.181137 
M80.744034,118.363106 
	C80.468063,120.861565 80.192093,123.360031 79.916122,125.858498 
	C80.356110,126.208321 80.796097,126.558151 81.236084,126.907974 
	C82.555901,125.891258 84.780563,125.040512 85.003944,123.822685 
	C85.445671,121.414436 86.377701,117.793587 80.744034,118.363106 
z"/>
<path fill="#4C4C4C" opacity="1.000000" stroke="none" 
	d="
M57.083172,120.423729 
	C57.195587,118.536034 57.404106,117.071594 57.806129,115.292809 
	C59.034233,115.870995 60.674229,116.600525 60.968231,117.692467 
	C61.468243,119.549553 60.852665,121.688049 61.233196,123.603539 
	C61.452618,124.708031 62.706425,125.607025 63.494648,126.598511 
	C64.445221,125.593811 65.898903,124.728989 66.226395,123.551056 
	C66.697060,121.858124 66.141365,119.904160 66.426109,118.126045 
	C66.595230,117.069901 67.536758,116.137451 68.131004,115.149384 
	C68.839088,116.035271 70.060722,116.869026 70.156944,117.817017 
	C70.423187,120.440208 70.302872,123.114807 70.183075,125.762192 
	C69.997055,129.873352 66.881866,129.719696 64.036774,129.726440 
	C61.071548,129.733459 57.728653,130.147308 57.286503,125.816658 
	C57.118744,124.173584 57.207455,122.504318 57.083172,120.423729 
z"/>
<path fill="#474747" opacity="1.000000" stroke="none" 
	d="
M113.548805,147.387650 
	C112.487968,147.301712 110.758118,146.949890 110.712463,146.445602 
	C110.449203,143.537537 110.584099,140.593445 110.584099,136.400833 
	C114.286690,137.366180 118.541695,137.245956 119.839554,139.145844 
	C121.250870,141.211792 119.914482,145.154785 119.726913,149.390289 
	C118.198013,148.025070 117.128296,147.273300 116.319160,146.304001 
	C114.750290,144.424591 113.955299,144.699783 113.548805,147.387650 
z"/>
<path fill="#505050" opacity="1.000000" stroke="none" 
	d="
M73.179642,137.795044 
	C74.082893,139.006638 74.719658,139.959656 75.576889,141.242615 
	C76.361259,139.625656 76.983566,138.342819 77.605865,137.059967 
	C78.019196,137.096069 78.432533,137.132187 78.845863,137.168289 
	C78.845863,140.802628 78.845863,144.436966 78.845863,149.480682 
	C76.724937,147.569809 75.123474,146.126953 73.434853,144.605576 
	C73.020210,145.840424 72.562294,147.204147 72.104370,148.567871 
	C71.505821,148.586563 70.907265,148.605240 70.308716,148.623932 
	C70.146851,145.327927 69.870583,142.028732 69.962746,138.739853 
	C69.974747,138.311508 71.883141,137.936295 73.179642,137.795044 
z"/>
<path fill="#4B4B4B" opacity="1.000000" stroke="none" 
	d="
M150.554016,148.293854 
	C149.599564,144.957291 149.056885,141.760254 148.448914,138.178528 
	C152.055756,138.178528 154.783463,138.178528 157.511169,138.178528 
	C157.795532,138.435715 158.079910,138.692886 158.364273,138.950073 
	C157.545364,139.539474 156.726440,140.128876 156.501953,140.290451 
	C157.448868,142.366943 158.535187,144.749146 160.215256,148.433365 
	C156.051422,148.433365 153.508606,148.433365 150.554016,148.293854 
z"/>
<path fill="#434343" opacity="1.000000" stroke="none" 
	d="
M97.145218,115.132751 
	C98.826469,115.252739 100.105675,115.376411 101.424019,115.503860 
	C100.866310,117.969086 100.049416,120.082764 100.005814,122.212280 
	C99.965736,124.169846 100.758171,126.144447 101.367271,128.959259 
	C99.297630,129.105835 96.898155,129.275757 95.795700,129.353836 
	C95.238167,124.827797 94.645538,121.048294 94.425644,117.247223 
	C94.387657,116.590515 95.930511,115.842346 97.145218,115.132751 
z"/>
<path fill="#F8F8F8" opacity="1.000000" stroke="none" 
	d="
M94.935699,56.942001 
	C96.726013,56.942001 98.516335,56.942001 100.273842,56.942001 
	C100.685493,50.479618 100.681511,50.498741 106.951111,51.805313 
	C107.912704,52.005707 108.930481,51.936531 110.429214,52.422222 
	C110.872932,54.903786 110.809700,56.955158 110.746460,59.006531 
	C109.170280,58.258392 107.594093,57.510254 106.146072,56.327148 
	C106.182816,55.928173 106.091408,55.964165 106.000000,56.000153 
	C102.544601,57.311054 99.089195,58.621952 95.258095,59.730125 
	C94.882393,59.527397 94.921272,59.198986 94.921265,59.198986 
	C94.937294,58.690575 94.953323,58.182163 94.990570,57.325294 
	C95.011780,56.976833 94.935699,56.942001 94.935699,56.942001 
z"/>
<path fill="#353535" opacity="1.000000" stroke="none" 
	d="
M31.589111,143.715790 
	C31.585842,141.394455 31.585842,139.468231 31.585842,137.542007 
	C32.144993,137.291718 32.704140,137.041428 33.263290,136.791153 
	C34.574463,138.474472 35.885635,140.157776 37.163048,141.797760 
	C37.810898,140.599319 38.605804,139.128830 39.400707,137.658356 
	C39.734509,137.888245 40.068306,138.118134 40.402103,138.348022 
	C40.402103,141.572311 40.402103,144.796585 40.402103,149.567841 
	C37.971394,147.303116 36.488979,145.921921 34.749870,144.301559 
	C34.335983,145.494125 33.842293,146.916626 33.348598,148.339127 
	C32.935730,148.367401 32.522865,148.395691 32.109997,148.423981 
	C31.937458,146.986282 31.764921,145.548584 31.589111,143.715790 
z"/>
<path fill="#3C3C3C" opacity="1.000000" stroke="none" 
	d="
M78.164986,52.358929 
	C85.205414,51.598282 85.923439,52.009953 85.981628,56.840546 
	C86.043419,61.969654 84.143234,63.378101 78.521065,62.061501 
	C78.081955,61.573078 78.003410,61.126339 77.923660,59.947914 
	C78.003304,56.930458 78.084145,54.644695 78.164986,52.358929 
z"/>
<path fill="#F4F4F4" opacity="1.000000" stroke="none" 
	d="
M78.099365,52.024403 
	C78.084145,54.644695 78.003304,56.930458 77.843857,59.615063 
	C75.809647,60.013901 73.854042,60.013901 72.976257,60.013901 
	C71.830994,57.397789 71.002228,55.504635 69.959068,53.121750 
	C71.854393,52.026890 74.473442,50.513958 77.450279,48.995430 
	C77.883286,49.889847 77.958519,50.789864 78.099365,52.024403 
z"/>
<path fill="#323232" opacity="1.000000" stroke="none" 
	d="
M22.522728,141.773224 
	C23.498114,141.926941 24.114748,141.926941 24.731382,141.926941 
	C24.806440,142.174347 24.881498,142.421768 24.956556,142.669174 
	C23.619513,143.372772 22.282469,144.076355 19.882318,145.339386 
	C23.006119,145.892761 25.018681,146.249283 27.031242,146.605804 
	C26.997513,146.989410 26.963785,147.373016 26.930056,147.756622 
	C24.117332,147.756622 21.304607,147.756622 18.221081,147.756622 
	C18.221081,144.711227 18.221081,141.497223 18.221081,138.117950 
	C21.119640,138.117950 23.877874,138.117950 26.599518,138.117950 
	C26.313351,140.864151 20.687136,136.599670 22.522728,141.773224 
z"/>
<path fill="#2F2F2F" opacity="1.000000" stroke="none" 
	d="
M45.850441,141.995789 
	C45.744324,134.713684 50.958210,139.484299 53.402283,138.041306 
	C51.764061,140.613693 45.797710,139.937241 48.500191,145.697815 
	C49.285393,145.756653 50.489784,145.846878 52.445641,145.993423 
	C51.366558,144.547180 50.720387,143.681137 49.734436,142.359711 
	C51.681156,142.359711 53.161751,142.359711 54.835972,142.359711 
	C54.835972,144.203049 54.835972,145.970703 54.835972,147.707443 
	C47.101898,150.163635 45.931057,149.466431 45.850441,141.995789 
z"/>
<path fill="#323232" opacity="1.000000" stroke="none" 
	d="
M97.691589,144.764740 
	C97.689995,142.350708 97.689995,140.398895 97.689995,138.206665 
	C100.515038,138.206665 102.954262,138.206665 106.171524,138.206665 
	C104.254303,140.758804 102.561172,143.012619 100.665634,145.535904 
	C102.007431,145.828278 104.084045,146.280762 106.737610,146.858963 
	C101.281036,149.581711 98.583176,148.938263 97.691589,144.764740 
z"/>
<path fill="#4B4B4B" opacity="1.000000" stroke="none" 
	d="
M139.287354,140.390198 
	C140.570297,139.386108 141.853256,138.382034 143.728882,136.914093 
	C143.728882,140.893723 143.728882,144.558548 143.728882,148.223389 
	C143.420425,148.493484 143.111954,148.763565 142.803497,149.033661 
	C141.591019,147.612991 140.378555,146.192337 139.099060,143.981079 
	C139.117157,142.257050 139.202255,141.323624 139.287354,140.390198 
z"/>
<path fill="#505050" opacity="1.000000" stroke="none" 
	d="
M127.753868,148.604446 
	C126.491333,148.422180 125.575188,148.237793 125.222626,148.166824 
	C125.222626,144.549164 125.222626,141.343811 125.222626,137.639282 
	C126.426567,137.639282 128.202255,137.639282 129.094009,137.639282 
	C129.459793,140.858246 129.917252,143.742264 130.014816,146.638412 
	C130.036118,147.270828 128.772247,147.946548 127.753868,148.604446 
z"/>
<path fill="#434343" opacity="1.000000" stroke="none" 
	d="
M64.087234,141.453796 
	C64.383369,143.841370 64.693695,145.850601 65.054131,148.184265 
	C63.457771,148.184265 61.758320,148.184265 60.446754,148.184265 
	C60.446754,144.662003 60.446754,141.415756 60.446754,137.460815 
	C61.602619,137.391235 63.256306,137.291702 65.542442,137.154083 
	C64.915222,138.860916 64.508324,139.968185 64.087234,141.453796 
z"/>
<path fill="#2F2F2F" opacity="1.000000" stroke="none" 
	d="
M88.586945,146.834198 
	C90.206398,147.033508 91.437965,147.096664 92.669540,147.159805 
	C92.651138,147.448303 92.632736,147.736786 92.614334,148.025269 
	C90.167709,148.025269 87.721077,148.025269 84.952301,148.025269 
	C84.952301,144.823517 84.952301,141.623825 84.952301,138.190948 
	C87.518059,138.190948 89.955505,138.190948 92.946800,138.190948 
	C90.477325,140.135590 91.541382,144.628540 87.066711,144.664490 
	C87.444160,145.342331 87.821609,146.020187 88.586945,146.834198 
z"/>
<path fill="#B9B9B9" opacity="1.000000" stroke="none" 
	d="
M98.179749,24.755285 
	C99.235458,25.679155 100.002533,26.399801 100.769600,27.120447 
	C100.528069,27.496239 100.286545,27.872032 100.045013,28.247824 
	C94.610809,25.470459 89.176613,22.693092 83.742409,19.915726 
	C84.149849,19.129288 84.557289,18.342848 84.964729,17.556408 
	C89.273521,19.888292 93.582321,22.220177 98.179749,24.755285 
z"/>
<path fill="#D4D4D4" opacity="1.000000" stroke="none" 
	d="
M110.276596,65.929749 
	C109.850990,66.354607 108.973503,67.139999 108.097855,67.137978 
	C102.092857,67.124039 96.088234,66.945114 89.953171,66.457809 
	C96.490417,66.039497 103.157997,65.982719 110.276596,65.929749 
z"/>
<path fill="#353535" opacity="1.000000" stroke="none" 
	d="
M110.843414,59.260735 
	C110.809700,56.955158 110.872932,54.903786 110.835678,52.422836 
	C110.798737,51.822468 110.862274,51.651680 111.042595,51.233765 
	C112.675301,51.789539 114.191216,52.592453 115.860992,53.695778 
	C116.169662,57.042866 115.550003,59.558609 111.531693,60.004585 
	C111.088501,59.846066 111.014435,59.680504 110.843414,59.260735 
z"/>
<path fill="#2F2F2F" opacity="1.000000" stroke="none" 
	d="
M139.028610,140.130920 
	C139.202255,141.323624 139.117157,142.257050 138.999252,143.657944 
	C137.975723,145.426773 136.985001,146.728134 135.277390,148.971161 
	C135.074554,145.048523 134.908371,141.834503 134.669067,137.206558 
	C136.642914,138.489365 137.706390,139.180511 139.028610,140.130920 
z"/>
<path fill="#F4F4F4" opacity="1.000000" stroke="none" 
	d="
M64.067978,60.819435 
	C63.027843,59.623104 62.146664,58.121788 61.174656,56.303085 
	C62.701675,55.429844 64.319527,54.873989 66.504936,54.123131 
	C67.019104,54.588730 68.248474,55.701958 69.286949,56.642334 
	C67.650787,57.894390 65.938866,59.204422 64.067978,60.819435 
z"/>
<path fill="#353535" opacity="1.000000" stroke="none" 
	d="
M117.275146,54.241791 
	C118.417831,53.329838 119.828613,52.660015 121.637123,51.997002 
	C122.121162,52.451195 122.207474,52.898582 122.170364,53.670692 
	C121.009964,55.370132 119.972977,56.744839 118.715164,58.412296 
	C118.360657,57.223980 117.951942,55.853951 117.275146,54.241791 
z"/>
<path fill="#F4F4F4" opacity="1.000000" stroke="none" 
	d="
M61.123619,54.998360 
	C60.062912,54.693851 59.329529,54.344044 58.291382,53.927460 
	C59.370476,53.680515 60.754333,53.500351 62.138191,53.320183 
	C61.909111,53.864479 61.680027,54.408768 61.123619,54.998360 
z"/>
<path fill="#F4F4F4" opacity="1.000000" stroke="none" 
	d="
M49.040882,51.277351 
	C49.798286,50.683392 50.593300,50.402142 51.704880,50.156197 
	C51.434715,51.487309 51.518391,54.193825 49.040882,51.277351 
z"/>
<path fill="#F8F8F8" opacity="1.000000" stroke="none" 
	d="
M15.679804,8.074327 
	C14.802258,8.296617 14.164781,8.373592 13.527302,8.450568 
	C13.484725,8.163418 13.442148,7.876267 13.399570,7.589117 
	C14.207987,7.453061 15.015045,7.307071 15.826899,7.196182 
	C15.908868,7.184987 16.093464,7.381897 16.099157,7.489195 
	C16.106745,7.632227 15.985677,7.782085 15.679804,8.074327 
z"/>
<path fill="#F4F4F4" opacity="1.000000" stroke="none" 
	d="
M47.987694,55.779278 
	C47.642181,55.468025 47.302902,54.857708 46.963619,54.247391 
	C47.192909,54.160038 47.422199,54.072685 47.651485,53.985329 
	C47.765633,54.483624 47.879780,54.981918 47.987694,55.779278 
z"/>
<path fill="#D7D7D7" opacity="1.000000" stroke="none" 
	d="
M128.363403,56.170845 
	C128.644760,56.984425 128.737350,57.989006 128.829956,58.993591 
	C128.611526,59.003139 128.393082,59.012684 128.174652,59.022232 
	C128.174652,58.135437 128.174652,57.248642 128.363403,56.170845 
z"/>
<path fill="#F8F8F8" opacity="1.000000" stroke="none" 
	d="
M32.601032,113.275391 
	C32.441868,113.149300 32.418934,112.931534 32.396000,112.713760 
	C32.509754,112.870415 32.623508,113.027069 32.601032,113.275391 
z"/>
<path fill="#D4D4D4" opacity="1.000000" stroke="none" 
	d="
M94.983002,56.943806 
	C94.749641,56.682236 94.526070,56.466663 94.354607,56.215511 
	C94.314491,56.156754 94.450935,55.977451 94.506157,55.853603 
	C94.633682,56.076668 94.761208,56.299732 94.912216,56.732399 
	C94.935699,56.942001 95.011780,56.976833 94.983002,56.943806 
z"/>
<path fill="#3C3C3C" opacity="1.000000" stroke="none" 
	d="
M89.157875,35.652508 
	C88.827843,35.770527 88.532997,35.548981 88.161087,35.056114 
	C88.453705,34.960842 88.823387,35.136890 89.157875,35.652508 
z"/>
<path fill="#D4D4D4" opacity="1.000000" stroke="none" 
	d="
M94.794594,59.232658 
	C94.921272,59.198986 94.882393,59.527397 94.851364,59.688072 
	C94.820328,59.848747 94.557228,59.584702 94.557228,59.584702 
	C94.557228,59.584702 94.667915,59.266335 94.794594,59.232658 
z"/>
<path fill="#FDFDFD" opacity="1.000000" stroke="none" 
	d="
M136.744934,109.358002 
	C136.992203,109.372757 137.126923,109.505203 137.261642,109.637650 
	C137.051895,109.583664 136.842133,109.529671 136.744934,109.358002 
z"/>
<path fill="#EEEEEE" opacity="1.000000" stroke="none" 
	d="
M81.168686,118.261391 
	C86.377701,117.793587 85.445671,121.414436 85.003944,123.822685 
	C84.780563,125.040512 82.555901,125.891258 81.236084,126.907974 
	C80.796097,126.558151 80.356110,126.208321 79.916122,125.858498 
	C80.192093,123.360031 80.468063,120.861565 81.168686,118.261391 
z"/>
<path fill="#FDFDFD" opacity="1.000000" stroke="none" 
	d="
M106.000000,56.000076 
	C106.091408,55.964165 106.182816,55.928173 106.137115,55.946079 
	C106.000000,55.999973 106.000000,56.000000 106.000000,56.000076 
z"/>
</svg>